<svg width="612" height="203" viewBox="0 0 612 203" fill="none" xmlns="http://www.w3.org/2000/svg">
<path d="M574 202V160H603V163.445H578.489V179.257H601.007V182.702H578.489V198.555H603V202H574Z" fill="black"/>
<path d="M94 202V160H122.52V163.445H98.4892V179.257H121.007V182.702H98.4892V198.555H123V202H94Z" fill="black"/>
<path d="M2 202V160H30.5199V163.445H6.48924V179.257H29.0075V182.702H6.48924V198.555H31V202H2Z" fill="black"/>
<path d="M508 202V160H511.647L540.545 196.479H538.63V160H543V202H539.353L510.512 165.521H512.427V202H508Z" fill="black"/>
<path d="M472 202V160H476V202H472Z" fill="black"/>
<path d="M48.8477 202V160H53.2935V198.158H76.8477V202H48.8477Z" fill="black"/>
<path d="M420 202V160H424.446V198.158H448V202H420Z" fill="black"/>
<path d="M205.774 202V163.842H191V160H225V163.842H210.226V202H205.774Z" fill="black"/>
<path d="M239 201.987V160H254.464C257.969 160 260.979 160.572 263.495 161.711C266.011 162.849 267.951 164.489 269.309 166.632C270.667 168.769 271.343 171.363 271.343 174.403C271.343 177.36 270.661 179.909 269.309 182.052C267.951 184.189 266.011 185.83 263.495 186.974C260.979 188.112 257.963 188.685 254.464 188.685H241.416L243.362 186.643V202H239V201.987ZM243.368 186.993L241.422 184.895H254.352C258.482 184.895 261.624 183.973 263.77 182.135C265.917 180.297 266.987 177.716 266.987 174.396C266.987 171.039 265.917 168.438 263.77 166.6C261.624 164.763 258.488 163.841 254.352 163.841H241.422L243.368 161.742V186.993ZM267.219 201.987L256.592 186.752H261.317L272 201.987H267.219Z" fill="black"/>
<path d="M161.924 202.076C158.755 202.076 155.832 201.556 153.161 200.51C150.49 199.47 148.171 197.999 146.206 196.107C144.246 194.216 142.715 191.992 141.632 189.431C140.542 186.869 140 184.076 140 181.038C140 178.007 140.542 175.207 141.632 172.645C142.722 170.084 144.259 167.86 146.237 165.969C148.215 164.077 150.546 162.612 153.217 161.566C155.889 160.52 158.812 160 161.981 160C165.15 160 168.054 160.495 170.687 161.478C173.321 162.461 175.57 163.958 177.435 165.969L174.7 168.743C172.955 167.008 171.034 165.768 168.936 165.023C166.838 164.278 164.576 163.902 162.163 163.902C159.587 163.902 157.218 164.328 155.063 165.173C152.902 166.019 151.025 167.221 149.419 168.775C147.812 170.334 146.565 172.144 145.676 174.211C144.782 176.278 144.341 178.551 144.341 181.032C144.341 183.474 144.788 185.742 145.676 187.827C146.565 189.913 147.818 191.735 149.419 193.295C151.025 194.848 152.902 196.051 155.063 196.896C157.224 197.742 159.568 198.168 162.107 198.168C164.482 198.168 166.731 197.811 168.854 197.103C170.971 196.395 172.924 195.193 174.707 193.502L177.202 196.809C175.217 198.543 172.905 199.852 170.246 200.736C167.588 201.637 164.816 202.076 161.924 202.076Z" fill="black"/>
<path d="M0 129.403V33.0564H39.8727C48.4596 33.0564 55.818 34.4343 61.9542 37.1838C68.0904 39.9333 72.8217 43.8854 76.1418 49.0212C79.4619 54.1632 81.1251 60.2635 81.1251 67.3284C81.1251 74.3932 79.4619 80.4935 76.1418 85.6356C72.8154 90.7776 68.0904 94.7172 61.9542 97.473C55.8117 100.229 48.4533 101.6 39.8727 101.6H9.9666L17.9991 93.2077V129.409H0V129.403ZM17.9991 95.1305L9.9666 86.4623H39.0411C46.9791 86.4623 52.9578 84.7901 56.9709 81.4393C60.984 78.0885 62.9937 73.3849 62.9937 67.3346C62.9937 61.1905 60.984 56.4618 56.9709 53.1548C52.9578 49.8479 46.9791 48.2007 39.0411 48.2007H9.9666L17.9991 39.3947V95.1305Z" fill="black"/>
<path d="M80.5781 129.403L124.187 33.0564H141.909L185.656 129.403H166.825L129.309 42.5513H136.51L99.1316 129.403H80.5781ZM128.502 105.628L133.347 94.5355H168.614L173.459 105.628H128.502Z" fill="black"/>
<path d="M197.979 129.403V33.0564H237.851C246.432 33.0564 253.797 34.4343 259.933 37.1838C266.069 39.9333 270.8 43.8854 274.127 49.0212C277.447 54.1632 279.11 60.2635 279.11 67.3284C279.11 74.3932 277.447 80.4747 274.127 85.5667C270.8 90.6586 266.069 94.5606 259.933 97.2663C253.79 99.9719 246.432 101.325 237.851 101.325H207.945L215.978 93.2015V129.403H197.979ZM215.978 95.1305L207.945 86.5939H237.02C244.958 86.5939 250.936 84.8965 254.949 81.5019C258.963 78.1073 260.972 73.3786 260.972 67.3284C260.972 61.1842 258.969 56.4555 254.949 53.1486C250.936 49.8416 244.958 48.1944 237.02 48.1944H207.945L215.978 39.3884V95.1305ZM261.388 129.403L236.881 94.4416H256.121L280.767 129.403H261.388Z" fill="black"/>
<path d="M299.18 129.403V33.0564H341.547C352.068 33.0564 361.298 35.0731 369.236 39.1129C377.174 43.1526 383.354 48.7456 387.789 55.9044C392.218 63.0632 394.436 71.5059 394.436 81.2263C394.436 90.8591 392.218 99.283 387.789 106.486C383.36 113.688 377.174 119.306 369.236 123.346C361.298 127.386 352.068 129.403 341.547 129.403H299.18ZM317.179 114.258H340.716C348.005 114.258 354.305 112.88 359.616 110.131C364.92 107.381 369.034 103.523 371.938 98.569C374.849 93.6149 376.298 87.834 376.298 81.2263C376.298 74.531 374.843 68.7251 371.938 63.8148C369.034 58.9044 364.926 55.0777 359.616 52.3219C354.305 49.5723 348.011 48.1944 340.716 48.1944H317.179V114.258Z" fill="black"/>
<path d="M515.851 129.403V33.0564H558.218C568.739 33.0564 577.969 35.0731 585.907 39.1129C593.845 43.1526 600.025 48.7456 604.46 55.9044C608.889 63.0632 611.107 71.5059 611.107 81.2263C611.107 90.8591 608.889 99.283 604.46 106.486C600.031 113.688 593.845 119.306 585.907 123.346C577.969 127.386 568.739 129.403 558.218 129.403H515.851ZM533.85 114.258H557.386C564.676 114.258 570.976 112.88 576.286 110.131C581.591 107.381 585.705 103.523 588.609 98.569C591.52 93.6149 592.969 87.834 592.969 81.2263C592.969 74.531 591.514 68.7251 588.609 63.8148C585.705 58.9044 581.597 55.0777 576.286 52.3219C570.976 49.5723 564.682 48.1944 557.386 48.1944H533.85V114.258Z" fill="black"/>
<path d="M398.443 128.784L442.058 32.4377H459.78L503.527 128.784H484.697L447.18 41.9327H454.381L416.997 128.784H398.443Z" fill="black"/>
<path d="M446.375 105.014L451.22 93.916H486.481L491.332 105.014H446.375Z" fill="black"/>
<path d="M597.94 0V1.80379H594.318V10.8102H592.503V1.80379H588.881V0H597.94ZM599.755 0H602.016L604.732 4.67858L607.447 0H609.709V10.8039H607.894V2.81842L604.725 8.27989L601.556 2.81842V10.8039H599.742V0H599.755Z" fill="black"/>
<path d="M313.032 203C309.877 203 306.957 202.469 304.26 201.399C301.568 200.337 299.233 198.825 297.252 196.873C295.278 194.92 293.736 192.647 292.644 190.048C291.546 187.448 291 184.605 291 181.5C291 178.401 291.546 175.552 292.644 172.953C293.742 170.353 295.278 168.08 297.252 166.127C299.226 164.175 301.549 162.663 304.228 161.601C306.9 160.531 309.833 160 313.032 160C316.186 160 319.1 160.531 321.772 161.601C324.444 162.67 326.774 164.168 328.748 166.102C330.722 168.035 332.258 170.308 333.356 172.927C334.454 175.546 335 178.401 335 181.506C335 184.605 334.448 187.467 333.356 190.086C332.258 192.705 330.722 194.978 328.748 196.911C326.774 198.845 324.444 200.343 321.772 201.412C319.1 202.469 316.186 203 313.032 203ZM313.032 199.018C315.545 199.018 317.868 198.589 320.008 197.718C322.14 196.853 324 195.624 325.574 194.036C327.148 192.448 328.38 190.592 329.256 188.479C330.132 186.366 330.576 184.042 330.576 181.506C330.576 178.971 330.138 176.647 329.256 174.534C328.38 172.421 327.148 170.571 325.574 168.976C324 167.389 322.14 166.159 320.008 165.295C317.875 164.431 315.545 163.995 313.032 163.995C310.518 163.995 308.182 164.431 306.024 165.295C303.866 166.159 302 167.389 300.426 168.976C298.852 170.571 297.614 172.421 296.713 174.534C295.811 176.647 295.367 178.971 295.367 181.506C295.367 184.003 295.818 186.321 296.713 188.453C297.608 190.585 298.845 192.448 300.426 194.043C302 195.631 303.866 196.86 306.024 197.724C308.182 198.582 310.518 199.018 313.032 199.018Z" fill="black"/>
</svg>
