<svg width="612" height="204" viewBox="0 0 612 204" fill="none" xmlns="http://www.w3.org/2000/svg">
<path d="M574 203V161H603V164.445H578.489V180.257H601.007V183.702H578.489V199.555H603V203H574Z" fill="black"/>
<path d="M254.771 203L241 161H245.664L257.054 197.114H257.447L268.837 161H274.139L285.529 197.114H285.922L297.311 161H302L288.229 203H283.32L271.66 167.378H271.34L259.68 203H254.771Z" fill="black"/>
<path d="M503.882 203V161H507.529L536.427 197.479H534.512V161H538.882V203H535.235L506.394 166.521H508.309V203H503.882Z" fill="black"/>
<path d="M460.198 203V161H464.198V203H460.198Z" fill="black"/>
<path d="M397.848 203V161H402.294V199.158H425.848V203H397.848Z" fill="black"/>
<path d="M77 203V161H81.4459V199.158H105V203H77Z" fill="black"/>
<path d="M0 129.403V33.0564H39.8727C48.4596 33.0564 55.818 34.4343 61.9542 37.1838C68.0904 39.9333 72.8217 43.8854 76.1418 49.0212C79.4619 54.1632 81.1251 60.2635 81.1251 67.3284C81.1251 74.3932 79.4619 80.4935 76.1418 85.6356C72.8154 90.7776 68.0904 94.7172 61.9542 97.473C55.8117 100.229 48.4533 101.6 39.8727 101.6H9.9666L17.9991 93.2077V129.409H0V129.403ZM17.9991 95.1305L9.9666 86.4623H39.0411C46.9791 86.4623 52.9578 84.7901 56.9709 81.4393C60.984 78.0885 62.9937 73.3849 62.9937 67.3346C62.9937 61.1905 60.984 56.4618 56.9709 53.1548C52.9578 49.8479 46.9791 48.2007 39.0411 48.2007H9.9666L17.9991 39.3947V95.1305Z" fill="black"/>
<path d="M80.5781 129.403L124.187 33.0564H141.909L185.656 129.403H166.825L129.309 42.5513H136.51L99.1316 129.403H80.5781ZM128.502 105.628L133.347 94.5355H168.614L173.459 105.628H128.502Z" fill="black"/>
<path d="M197.979 129.403V33.0564H237.851C246.432 33.0564 253.797 34.4343 259.933 37.1838C266.069 39.9333 270.8 43.8854 274.127 49.0212C277.447 54.1632 279.11 60.2635 279.11 67.3284C279.11 74.3932 277.447 80.4747 274.127 85.5667C270.8 90.6586 266.069 94.5606 259.933 97.2663C253.79 99.9719 246.432 101.325 237.851 101.325H207.945L215.978 93.2015V129.403H197.979ZM215.978 95.1305L207.945 86.5939H237.02C244.958 86.5939 250.936 84.8965 254.949 81.5019C258.963 78.1073 260.972 73.3786 260.972 67.3284C260.972 61.1842 258.969 56.4555 254.949 53.1486C250.936 49.8416 244.958 48.1944 237.02 48.1944H207.945L215.978 39.3884V95.1305ZM261.388 129.403L236.881 94.4416H256.121L280.767 129.403H261.388Z" fill="black"/>
<path d="M299.18 129.403V33.0564H341.547C352.068 33.0564 361.298 35.0731 369.236 39.1129C377.174 43.1526 383.354 48.7456 387.789 55.9044C392.218 63.0632 394.436 71.5059 394.436 81.2263C394.436 90.8591 392.218 99.283 387.789 106.486C383.36 113.688 377.174 119.306 369.236 123.346C361.298 127.386 352.068 129.403 341.547 129.403H299.18ZM317.179 114.258H340.716C348.005 114.258 354.305 112.88 359.616 110.131C364.92 107.381 369.034 103.523 371.938 98.569C374.849 93.6149 376.298 87.834 376.298 81.2263C376.298 74.531 374.843 68.7251 371.938 63.8148C369.034 58.9044 364.926 55.0777 359.616 52.3219C354.305 49.5723 348.011 48.1944 340.716 48.1944H317.179V114.258Z" fill="black"/>
<path d="M515.851 129.403V33.0564H558.218C568.739 33.0564 577.969 35.0731 585.907 39.1129C593.845 43.1526 600.025 48.7456 604.46 55.9044C608.889 63.0632 611.107 71.5059 611.107 81.2263C611.107 90.8591 608.889 99.283 604.46 106.486C600.031 113.688 593.845 119.306 585.907 123.346C577.969 127.386 568.739 129.403 558.218 129.403H515.851ZM533.85 114.258H557.386C564.676 114.258 570.976 112.88 576.286 110.131C581.591 107.381 585.705 103.523 588.609 98.569C591.52 93.6149 592.969 87.834 592.969 81.2263C592.969 74.531 591.514 68.7251 588.609 63.8148C585.705 58.9044 581.597 55.0777 576.286 52.3219C570.976 49.5723 564.682 48.1944 557.386 48.1944H533.85V114.258Z" fill="black"/>
<path d="M398.443 128.784L442.058 32.4377H459.78L503.527 128.784H484.697L447.18 41.9327H454.381L416.997 128.784H398.443Z" fill="black"/>
<path d="M446.375 105.014L451.22 93.916H486.481L491.332 105.014H446.375Z" fill="black"/>
<path d="M597.94 0V1.80379H594.318V10.8102H592.503V1.80379H588.881V0H597.94ZM599.755 0H602.016L604.732 4.67858L607.447 0H609.709V10.8039H607.894V2.81842L604.725 8.27989L601.556 2.81842V10.8039H599.742V0H599.755Z" fill="black"/>
<path d="M2 203V161H29V164.445H6.26076V180.257H26.881V183.702H6.26076V203H2Z" fill="black"/>
<path d="M173.032 204C169.877 204 166.957 203.469 164.26 202.399C161.568 201.337 159.233 199.825 157.252 197.873C155.278 195.92 153.736 193.647 152.644 191.048C151.546 188.448 151 185.605 151 182.5C151 179.401 151.546 176.552 152.644 173.953C153.742 171.353 155.278 169.08 157.252 167.127C159.226 165.175 161.549 163.663 164.228 162.601C166.9 161.531 169.833 161 173.032 161C176.186 161 179.1 161.531 181.772 162.601C184.444 163.67 186.774 165.168 188.748 167.102C190.722 169.035 192.258 171.308 193.356 173.927C194.454 176.546 195 179.401 195 182.506C195 185.605 194.448 188.467 193.356 191.086C192.258 193.705 190.722 195.978 188.748 197.911C186.774 199.845 184.444 201.343 181.772 202.412C179.1 203.469 176.186 204 173.032 204ZM173.032 200.018C175.545 200.018 177.868 199.589 180.008 198.718C182.14 197.853 184 196.624 185.574 195.036C187.148 193.448 188.38 191.592 189.256 189.479C190.132 187.366 190.576 185.042 190.576 182.506C190.576 179.971 190.138 177.647 189.256 175.534C188.38 173.421 187.148 171.571 185.574 169.976C184 168.389 182.14 167.159 180.008 166.295C177.875 165.431 175.545 164.995 173.032 164.995C170.518 164.995 168.182 165.431 166.024 166.295C163.866 167.159 162 168.389 160.426 169.976C158.852 171.571 157.614 173.421 156.713 175.534C155.811 177.647 155.367 179.971 155.367 182.506C155.367 185.003 155.818 187.321 156.713 189.453C157.608 191.585 158.845 193.448 160.426 195.043C162 196.631 163.866 197.86 166.024 198.724C168.182 199.582 170.518 200.018 173.032 200.018Z" fill="black"/>
</svg>
