<svg width="612" height="203" viewBox="0 0 612 203" fill="none" xmlns="http://www.w3.org/2000/svg">
<path d="M217 202V160H245.52V163.445H221.489V179.257H244.007V182.702H221.489V198.555H246V202H217Z" fill="#101010"/>
<path d="M574 202V160H603V163.445H578.489V179.257H601.007V182.702H578.489V198.555H603V202H574Z" fill="#101010"/>
<path d="M140.771 202L127 160H131.664L143.054 196.114H143.447L154.837 160H160.139L171.529 196.114H171.922L183.311 160H188L174.229 202H169.32L157.66 166.378H157.34L145.68 202H140.771Z" fill="#101010"/>
<path d="M2 201.987V160H17.7784C21.3543 160 24.4257 160.572 26.9927 161.711C29.5596 162.849 31.5391 164.489 32.9247 166.632C34.3104 168.769 35 171.363 35 174.403C35 177.36 34.304 179.909 32.9247 182.052C31.5391 184.189 29.5596 185.842 26.9927 187C24.4257 188.157 21.3479 188.742 17.7784 188.742H4.46478L6.45064 186.643V202H2V201.987ZM6.45704 186.993L4.47117 184.831H17.6635C21.8779 184.831 25.0834 183.922 27.2736 182.103C29.4638 180.285 30.5557 177.716 30.5557 174.396C30.5557 171.039 29.4638 168.438 27.2736 166.6C25.0834 164.763 21.8843 163.841 17.6635 163.841H4.47117L6.45704 161.742V186.993Z" fill="#101010"/>
<path d="M503.882 202V160H507.529L536.427 196.479H534.512V160H538.882V202H535.235L506.394 165.521H508.309V202H503.882Z" fill="#101010"/>
<path d="M460.198 202V160H464.198V202H460.198Z" fill="#101010"/>
<path d="M397.848 202V160H402.294V198.158H425.848V202H397.848Z" fill="#101010"/>
<path d="M278.11 201.987V160H293.575C297.079 160 300.089 160.572 302.605 161.711C305.121 162.849 307.061 164.489 308.419 166.632C309.777 168.769 310.453 171.363 310.453 174.403C310.453 177.36 309.771 179.909 308.419 182.052C307.061 184.189 305.121 185.83 302.605 186.974C300.089 188.112 297.073 188.685 293.575 188.685H280.526L282.472 186.643V202H278.11V201.987ZM282.479 186.993L280.532 184.895H293.462C297.592 184.895 300.734 183.973 302.881 182.135C305.027 180.297 306.097 177.716 306.097 174.396C306.097 171.039 305.027 168.438 302.881 166.6C300.734 164.763 297.599 163.841 293.462 163.841H280.532L282.479 161.742V186.993ZM306.329 201.987L295.702 186.752H300.427L311.11 201.987H306.329Z" fill="#101010"/>
<path d="M64.3623 173.168C64.1295 173.611 63.9127 174.066 63.7129 174.534C62.8116 176.647 62.3672 178.971 62.3672 181.507C62.3672 184.004 62.818 186.321 63.7129 188.453C64.6079 190.585 65.8453 192.449 67.4258 194.043C68.9999 195.631 70.8663 196.86 73.0244 197.725C75.1823 198.582 77.518 199.018 80.0312 199.018C82.5448 199.018 84.8687 198.589 87.0078 197.718C88.4532 197.132 89.7722 196.377 90.9629 195.458L94.2656 198.226C92.636 199.537 90.8038 200.599 88.7725 201.412C86.1002 202.469 83.1859 203 80.0312 203C76.8768 203 73.9572 202.469 71.2598 201.399C68.5685 200.337 66.2323 198.826 64.252 196.873C62.278 194.92 60.7353 192.647 59.6436 190.048C58.5455 187.448 58 184.605 58 181.5C58 178.401 58.5455 175.552 59.6436 172.952C60.0306 172.036 60.4739 171.161 60.9697 170.326L64.3623 173.168ZM80.0312 160C83.1859 160 86.1002 160.531 88.7725 161.601C91.4446 162.67 93.7741 164.168 95.748 166.102C97.7221 168.035 99.2584 170.308 100.356 172.927C101.455 175.545 102 178.402 102 181.507C102 184.605 101.448 187.467 100.356 190.086C100.147 190.586 99.9203 191.073 99.6787 191.548L96.1924 188.626C96.2132 188.577 96.2354 188.528 96.2559 188.479C97.1316 186.366 97.5761 184.042 97.5762 181.507C97.5762 178.972 97.1381 176.647 96.2559 174.534C95.3799 172.421 94.1483 170.571 92.5742 168.977C91.0001 167.389 89.1404 166.159 87.0078 165.295C84.8751 164.431 82.5448 163.995 80.0312 163.995C77.5179 163.995 75.1823 164.431 73.0244 165.295C71.992 165.708 71.0267 166.206 70.1279 166.786L66.7949 163.993C68.1459 163.036 69.6227 162.237 71.2275 161.601C73.8997 160.531 76.8324 160 80.0312 160Z" fill="#101010"/>
<path d="M0 129.403V33.0564H39.8727C48.4596 33.0564 55.818 34.4343 61.9542 37.1838C68.0904 39.9333 72.8217 43.8854 76.1418 49.0212C79.4619 54.1632 81.1251 60.2635 81.1251 67.3284C81.1251 74.3932 79.4619 80.4935 76.1418 85.6356C72.8154 90.7776 68.0904 94.7172 61.9542 97.473C55.8117 100.229 48.4533 101.6 39.8727 101.6H9.9666L17.9991 93.2077V129.409H0V129.403ZM17.9991 95.1305L9.9666 86.4623H39.0411C46.9791 86.4623 52.9578 84.7901 56.9709 81.4393C60.984 78.0885 62.9937 73.3849 62.9937 67.3346C62.9937 61.1905 60.984 56.4618 56.9709 53.1548C52.9578 49.8479 46.9791 48.2007 39.0411 48.2007H9.9666L17.9991 39.3947V95.1305Z" fill="black"/>
<path d="M80.5781 129.403L124.187 33.0564H141.909L185.656 129.403H166.825L129.309 42.5513H136.51L99.1316 129.403H80.5781ZM128.502 105.628L133.347 94.5355H168.614L173.459 105.628H128.502Z" fill="black"/>
<path d="M197.979 129.403V33.0564H237.851C246.432 33.0564 253.797 34.4343 259.933 37.1838C266.069 39.9333 270.8 43.8854 274.127 49.0212C277.447 54.1632 279.11 60.2635 279.11 67.3284C279.11 74.3932 277.447 80.4747 274.127 85.5667C270.8 90.6586 266.069 94.5606 259.933 97.2663C253.79 99.9719 246.432 101.325 237.851 101.325H207.945L215.978 93.2015V129.403H197.979ZM215.978 95.1305L207.945 86.5939H237.02C244.958 86.5939 250.936 84.8965 254.949 81.5019C258.963 78.1073 260.972 73.3786 260.972 67.3284C260.972 61.1842 258.969 56.4555 254.949 53.1486C250.936 49.8416 244.958 48.1944 237.02 48.1944H207.945L215.978 39.3884V95.1305ZM261.388 129.403L236.881 94.4416H256.121L280.767 129.403H261.388Z" fill="black"/>
<path d="M299.18 129.403V33.0564H341.547C352.068 33.0564 361.298 35.0731 369.236 39.1129C377.174 43.1526 383.354 48.7456 387.789 55.9044C392.218 63.0632 394.436 71.5059 394.436 81.2263C394.436 90.8591 392.218 99.283 387.789 106.486C383.36 113.688 377.174 119.306 369.236 123.346C361.298 127.386 352.068 129.403 341.547 129.403H299.18ZM317.179 114.258H340.716C348.005 114.258 354.305 112.88 359.616 110.131C364.92 107.381 369.034 103.523 371.938 98.569C374.849 93.6149 376.298 87.834 376.298 81.2263C376.298 74.531 374.843 68.7251 371.938 63.8148C369.034 58.9044 364.926 55.0777 359.616 52.3219C354.305 49.5723 348.011 48.1944 340.716 48.1944H317.179V114.258Z" fill="black"/>
<path d="M515.851 129.403V33.0564H558.218C568.739 33.0564 577.969 35.0731 585.907 39.1129C593.845 43.1526 600.025 48.7456 604.46 55.9044C608.889 63.0632 611.107 71.5059 611.107 81.2263C611.107 90.8591 608.889 99.283 604.46 106.486C600.031 113.688 593.845 119.306 585.907 123.346C577.969 127.386 568.739 129.403 558.218 129.403H515.851ZM533.85 114.258H557.386C564.676 114.258 570.976 112.88 576.286 110.131C581.591 107.381 585.705 103.523 588.609 98.569C591.52 93.6149 592.969 87.834 592.969 81.2263C592.969 74.531 591.514 68.7251 588.609 63.8148C585.705 58.9044 581.597 55.0777 576.286 52.3219C570.976 49.5723 564.682 48.1944 557.386 48.1944H533.85V114.258Z" fill="black"/>
<path d="M398.443 128.784L442.058 32.4377H459.78L503.527 128.784H484.697L447.18 41.9327H454.381L416.997 128.784H398.443Z" fill="black"/>
<path d="M446.375 105.014L451.22 93.916H486.481L491.332 105.014H446.375Z" fill="black"/>
<path d="M597.94 0V1.80379H594.318V10.8102H592.503V1.80379H588.881V0H597.94ZM599.755 0H602.016L604.732 4.67858L607.447 0H609.709V10.8039H607.894V2.81842L604.725 8.27989L601.556 2.81842V10.8039H599.742V0H599.755Z" fill="black"/>
</svg>
