<svg width="612" height="203" viewBox="0 0 612 203" fill="none" xmlns="http://www.w3.org/2000/svg">
<path d="M88.1182 203V161H116.638V164.445H92.6074V180.257H115.126V183.702H92.6074V199.555H117.118V203H88.1182Z" fill="black"/>
<path d="M574.118 203V161H603V164.445H578.607V180.257H601.126V183.702H578.607V199.555H603.118V203H574.118Z" fill="black"/>
<path d="M2 203V161H5.64715L34.5453 197.479H32.6298V161H37V203H33.3528L4.51178 166.521H6.42733V203H2Z" fill="black"/>
<path d="M290.118 202.994V161H306.959C311.369 161 315.241 161.89 318.574 163.671C321.901 165.452 324.495 167.919 326.343 171.08C328.197 174.241 329.118 177.879 329.118 182C329.118 186.121 328.191 189.759 326.343 192.92C324.488 196.081 321.901 198.548 318.574 200.329C315.247 202.11 311.375 203 306.959 203H290.118V202.994ZM294.491 199.152H306.727C310.392 199.152 313.575 198.421 316.269 196.965C318.969 195.508 321.068 193.486 322.565 190.904C324.062 188.322 324.808 185.352 324.808 181.994C324.808 178.598 324.056 175.615 322.565 173.052C321.068 170.495 318.969 168.485 316.269 167.023C313.568 165.56 310.386 164.835 306.727 164.835H294.491V199.152Z" fill="black"/>
<path d="M451.118 203V161H455.118V203H451.118Z" fill="black"/>
<path d="M371.118 202.987V161H386.582C390.087 161 393.097 161.572 395.613 162.711C398.129 163.849 400.069 165.489 401.427 167.632C402.785 169.769 403.461 172.363 403.461 175.403C403.461 178.36 402.779 180.909 401.427 183.052C400.069 185.189 398.129 186.83 395.613 187.974C393.097 189.112 390.081 189.685 386.582 189.685H373.534L375.48 187.643V203H371.118V202.987ZM375.486 187.993L373.54 185.895H386.47C390.6 185.895 393.742 184.973 395.888 183.135C398.035 181.297 399.105 178.716 399.105 175.396C399.105 172.039 398.035 169.438 395.888 167.6C393.742 165.763 390.607 164.841 386.47 164.841H373.54L375.486 162.742V187.993ZM399.337 202.987L388.71 187.752H393.435L404.118 202.987H399.337Z" fill="black"/>
<path d="M0.118164 129.403V33.0564H39.9909C48.5778 33.0564 55.9362 34.4343 62.0724 37.1838C68.2086 39.9333 72.9399 43.8854 76.26 49.0212C79.5801 54.1632 81.2433 60.2635 81.2433 67.3284C81.2433 74.3932 79.5801 80.4935 76.26 85.6356C72.9336 90.7776 68.2086 94.7172 62.0724 97.473C55.9299 100.229 48.5715 101.6 39.9909 101.6H10.0848L18.1173 93.2077V129.409H0.118164V129.403ZM18.1173 95.1305L10.0848 86.4623H39.1593C47.0973 86.4623 53.076 84.7901 57.0891 81.4393C61.1022 78.0885 63.1119 73.3849 63.1119 67.3346C63.1119 61.1905 61.1022 56.4618 57.0891 53.1548C53.076 49.8479 47.0973 48.2007 39.1593 48.2007H10.0848L18.1173 39.3947V95.1305Z" fill="black"/>
<path d="M80.6963 129.403L124.305 33.0564H142.027L185.774 129.403H166.943L129.427 42.5513H136.628L99.2498 129.403H80.6963ZM128.62 105.628L133.465 94.5355H168.732L173.577 105.628H128.62Z" fill="black"/>
<path d="M198.097 129.403V33.0564H237.969C246.55 33.0564 253.915 34.4343 260.051 37.1838C266.187 39.9333 270.918 43.8854 274.245 49.0212C277.565 54.1632 279.228 60.2635 279.228 67.3284C279.228 74.3932 277.565 80.4747 274.245 85.5667C270.918 90.6586 266.187 94.5606 260.051 97.2663C253.908 99.9719 246.55 101.325 237.969 101.325H208.063L216.096 93.2015V129.403H198.097ZM216.096 95.1305L208.063 86.5939H237.138C245.076 86.5939 251.054 84.8965 255.068 81.5019C259.081 78.1073 261.09 73.3786 261.09 67.3284C261.09 61.1842 259.087 56.4555 255.068 53.1486C251.054 49.8416 245.076 48.1944 237.138 48.1944H208.063L216.096 39.3884V95.1305ZM261.506 129.403L236.999 94.4416H256.239L280.885 129.403H261.506Z" fill="black"/>
<path d="M299.298 129.403V33.0564H341.665C352.186 33.0564 361.416 35.0731 369.354 39.1129C377.292 43.1526 383.472 48.7456 387.907 55.9044C392.336 63.0632 394.554 71.5059 394.554 81.2263C394.554 90.8591 392.336 99.283 387.907 106.486C383.478 113.688 377.292 119.306 369.354 123.346C361.416 127.386 352.186 129.403 341.665 129.403H299.298ZM317.297 114.258H340.834C348.123 114.258 354.423 112.88 359.734 110.131C365.038 107.381 369.152 103.523 372.057 98.569C374.967 93.6149 376.416 87.834 376.416 81.2263C376.416 74.531 374.961 68.7251 372.057 63.8148C369.152 58.9044 365.045 55.0777 359.734 52.3219C354.423 49.5723 348.129 48.1944 340.834 48.1944H317.297V114.258Z" fill="black"/>
<path d="M515.969 129.403V33.0564H558.336C568.857 33.0564 578.087 35.0731 586.025 39.1129C593.963 43.1526 600.143 48.7456 604.578 55.9044C609.007 63.0632 611.225 71.5059 611.225 81.2263C611.225 90.8591 609.007 99.283 604.578 106.486C600.149 113.688 593.963 119.306 586.025 123.346C578.087 127.386 568.857 129.403 558.336 129.403H515.969ZM533.968 114.258H557.505C564.794 114.258 571.094 112.88 576.405 110.131C581.709 107.381 585.823 103.523 588.727 98.569C591.638 93.6149 593.087 87.834 593.087 81.2263C593.087 74.531 591.632 68.7251 588.727 63.8148C585.823 58.9044 581.716 55.0777 576.405 52.3219C571.094 49.5723 564.8 48.1944 557.505 48.1944H533.968V114.258Z" fill="black"/>
<path d="M398.562 128.784L442.176 32.4377H459.898L503.646 128.784H484.815L447.298 41.9327H454.499L417.115 128.784H398.562Z" fill="black"/>
<path d="M446.493 105.014L451.338 93.916H486.599L491.45 105.014H446.493Z" fill="black"/>
<path d="M598.058 0V1.80379H594.436V10.8102H592.622V1.80379H588.999V0H598.058ZM599.873 0H602.135L604.85 4.67858L607.565 0H609.827V10.8039H608.012V2.81842L604.844 8.27989L601.675 2.81842V10.8039H599.86V0H599.873Z" fill="black"/>
<path d="M498.873 161L514.4 198.017H514.837L530.363 161H535.118L517.044 203H512.192L494.118 161H498.873Z" fill="black"/>
<path d="M162.264 161L175.467 179.231H175.77L188.972 161H194.118L178.773 182L194.118 203H188.972L175.77 184.974H175.467L162.264 203H157.118L172.696 182L157.118 161H162.264Z" fill="black"/>
</svg>
