<svg  xmlns="http://www.w3.org/2000/svg" viewbox="0 0 400 89.4" class="logo__img">
    <g id="svgg">
        <path id="path0"
              d="M160.126 3.042 C 160.054 3.732,159.312 6.416,159.008 7.083 C 158.925 7.267,158.697 7.867,158.502 8.417 C 157.908 10.091,157.148 12.065,156.967 12.404 C 156.793 12.728,156.374 13.801,155.595 15.917 C 155.359 16.558,155.090 17.215,154.997 17.377 C 154.904 17.538,154.709 18.026,154.563 18.460 C 154.417 18.895,154.124 19.634,153.911 20.103 C 153.699 20.572,153.441 21.266,153.339 21.645 C 153.237 22.023,153.094 22.333,153.021 22.333 C 152.948 22.333,152.889 22.434,152.889 22.557 C 152.889 22.680,152.531 23.674,152.094 24.766 C 151.657 25.857,151.271 26.894,151.237 27.071 C 151.203 27.248,151.079 27.453,150.962 27.527 C 150.846 27.601,150.801 27.663,150.863 27.664 C 150.925 27.666,150.784 28.135,150.551 28.708 C 150.318 29.281,149.947 30.226,149.727 30.807 C 149.507 31.388,149.189 32.176,149.018 32.557 C 148.848 32.938,148.576 33.662,148.413 34.167 C 148.251 34.671,148.065 35.121,148.000 35.167 C 147.936 35.212,147.710 35.775,147.499 36.417 C 147.288 37.058,147.022 37.733,146.908 37.917 C 146.794 38.100,146.650 38.438,146.587 38.667 C 146.444 39.187,144.817 43.357,144.669 43.583 C 144.609 43.675,144.457 44.087,144.330 44.500 C 144.204 44.913,144.011 45.400,143.903 45.583 C 143.794 45.767,143.572 46.329,143.410 46.833 C 143.248 47.337,143.022 47.900,142.907 48.083 C 142.792 48.267,142.565 48.848,142.402 49.375 C 142.239 49.902,142.044 50.333,141.970 50.333 C 141.895 50.333,141.833 50.450,141.833 50.593 C 141.833 51.191,140.325 54.559,139.728 55.297 C 138.778 56.470,137.324 57.450,136.286 57.617 C 135.991 57.665,135.637 57.727,135.500 57.756 C 135.362 57.784,135.044 57.814,134.792 57.821 C 134.396 57.832,134.333 57.902,134.333 58.333 L 134.333 58.833 141.927 58.833 L 149.521 58.833 149.469 58.313 C 149.421 57.837,149.359 57.788,148.750 57.735 C 147.438 57.621,146.166 56.601,146.067 55.583 C 146.058 55.492,145.994 55.285,145.924 55.125 C 145.855 54.965,145.850 54.702,145.914 54.542 C 145.978 54.381,146.062 54.063,146.101 53.833 C 146.182 53.360,147.558 49.510,147.918 48.750 C 148.048 48.475,148.314 47.762,148.509 47.167 C 148.703 46.571,148.961 45.858,149.082 45.583 C 149.203 45.308,149.396 44.765,149.511 44.375 L 149.719 43.667 157.705 43.667 C 166.055 43.667,166.167 43.676,166.167 44.365 C 166.167 44.488,166.323 44.999,166.514 45.502 C 166.704 46.005,167.042 46.979,167.264 47.667 C 167.486 48.354,167.739 49.067,167.826 49.250 C 167.913 49.433,168.182 50.146,168.424 50.833 C 168.667 51.521,168.976 52.382,169.112 52.747 C 170.120 55.460,168.547 58.336,166.347 57.801 C 166.058 57.731,165.757 58.226,165.885 58.561 C 165.980 58.809,166.972 58.833,177.161 58.833 L 188.333 58.833 188.331 58.458 C 188.327 57.892,188.141 57.732,187.500 57.744 C 186.835 57.756,185.000 57.207,185.000 56.996 C 185.000 56.919,184.854 56.809,184.675 56.753 C 183.665 56.432,182.120 54.260,181.477 52.257 C 181.302 51.711,181.103 51.224,181.034 51.174 C 180.966 51.124,180.730 50.558,180.510 49.917 C 180.289 49.275,180.058 48.712,179.996 48.667 C 179.933 48.621,179.749 48.171,179.586 47.667 C 179.423 47.163,179.228 46.672,179.154 46.578 C 179.080 46.483,178.818 45.845,178.573 45.161 C 178.328 44.477,178.061 43.833,177.978 43.730 C 177.896 43.627,177.714 43.158,177.574 42.688 C 177.435 42.218,177.236 41.833,177.132 41.833 C 177.029 41.833,176.994 41.784,177.054 41.724 C 177.114 41.663,177.099 41.532,177.021 41.432 C 176.942 41.332,176.750 40.859,176.594 40.380 C 176.438 39.902,176.128 39.152,175.906 38.714 C 175.683 38.275,175.501 37.797,175.501 37.650 C 175.500 37.503,175.325 37.053,175.111 36.650 C 174.897 36.247,174.669 35.704,174.605 35.445 C 174.540 35.185,174.265 34.503,173.993 33.929 C 173.722 33.354,173.500 32.777,173.500 32.646 C 173.500 32.515,173.383 32.240,173.240 32.036 C 173.096 31.831,172.798 31.130,172.576 30.477 C 172.354 29.825,172.103 29.206,172.020 29.104 C 171.936 29.001,171.753 28.529,171.614 28.056 C 171.474 27.583,171.247 27.020,171.109 26.806 C 170.971 26.592,170.696 25.929,170.497 25.333 C 170.298 24.738,170.081 24.213,170.015 24.167 C 169.950 24.121,169.766 23.664,169.608 23.152 C 169.449 22.640,169.221 22.077,169.100 21.902 C 168.979 21.727,168.785 21.283,168.669 20.917 C 168.552 20.550,168.241 19.784,167.978 19.215 C 167.715 18.646,167.500 18.101,167.500 18.005 C 167.500 17.908,167.425 17.680,167.333 17.498 C 167.242 17.316,167.087 17.011,166.991 16.821 C 166.894 16.630,166.668 15.999,166.488 15.417 C 166.308 14.835,166.106 14.335,166.038 14.305 C 165.971 14.275,165.734 13.725,165.512 13.083 C 165.290 12.442,165.057 11.879,164.994 11.833 C 164.931 11.787,164.710 11.262,164.502 10.667 C 164.295 10.071,164.070 9.508,164.004 9.417 C 163.937 9.325,163.744 8.837,163.574 8.333 C 163.404 7.829,163.211 7.342,163.146 7.250 C 163.082 7.158,162.833 6.564,162.594 5.930 C 162.355 5.295,162.098 4.695,162.022 4.596 C 161.946 4.498,161.742 3.949,161.567 3.376 C 161.144 1.989,160.258 1.783,160.126 3.042 M316.285 2.437 C 316.220 2.502,316.167 2.881,316.167 3.278 C 316.167 3.675,316.104 4.000,316.028 4.000 C 315.951 4.000,315.883 4.094,315.877 4.208 C 315.845 4.762,314.162 9.670,313.872 10.055 C 313.791 10.162,313.588 10.719,313.420 11.292 C 313.251 11.865,313.059 12.333,312.992 12.333 C 312.924 12.333,312.818 12.538,312.755 12.788 C 312.603 13.397,311.226 16.962,310.914 17.555 C 310.778 17.815,310.667 18.134,310.667 18.266 C 310.667 18.397,310.597 18.635,310.512 18.794 C 310.067 19.626,309.072 22.146,308.950 22.750 C 308.932 22.842,308.877 22.954,308.829 23.000 C 308.715 23.109,307.333 26.602,307.333 26.782 C 307.333 26.859,307.195 27.183,307.026 27.502 C 306.856 27.822,306.581 28.533,306.415 29.083 C 306.248 29.633,306.038 30.180,305.948 30.297 C 305.857 30.415,305.617 30.977,305.414 31.547 C 304.675 33.615,304.165 34.925,303.940 35.333 C 303.814 35.563,303.578 36.162,303.416 36.667 C 303.255 37.171,303.063 37.660,302.989 37.753 C 302.916 37.847,302.687 38.447,302.479 39.087 C 302.272 39.726,302.047 40.288,301.980 40.335 C 301.913 40.382,301.673 40.945,301.447 41.585 C 300.722 43.639,300.033 45.451,299.856 45.771 C 299.762 45.943,299.537 46.496,299.357 47.000 C 299.177 47.504,298.936 48.142,298.822 48.417 C 298.607 48.936,298.334 49.636,297.605 51.537 C 297.369 52.152,297.103 52.790,297.015 52.953 C 296.926 53.116,296.670 53.663,296.445 54.167 C 295.625 56.004,293.765 57.360,291.599 57.696 C 290.365 57.888,290.319 57.911,290.367 58.323 L 290.417 58.750 297.958 58.793 L 305.500 58.837 305.500 58.335 C 305.500 57.973,305.419 57.830,305.208 57.821 C 303.097 57.731,301.934 56.522,302.031 54.516 C 302.060 53.912,302.128 53.379,302.182 53.333 C 302.236 53.288,302.438 52.800,302.630 52.250 C 302.822 51.700,303.292 50.425,303.674 49.417 C 304.056 48.408,304.532 47.096,304.732 46.500 C 304.932 45.904,305.178 45.267,305.278 45.083 C 305.378 44.900,305.513 44.506,305.577 44.208 L 305.693 43.667 313.767 43.667 L 321.840 43.667 322.024 44.125 C 322.125 44.377,322.268 44.733,322.341 44.917 C 322.414 45.100,322.523 45.472,322.583 45.744 C 322.642 46.016,322.827 46.541,322.994 46.911 C 323.264 47.510,323.797 48.971,323.908 49.417 C 323.931 49.508,323.996 49.696,324.053 49.833 C 324.482 50.874,324.966 52.420,324.897 52.531 C 324.851 52.606,324.886 52.667,324.974 52.667 C 325.248 52.667,325.547 54.325,325.448 55.293 C 325.312 56.604,324.481 57.423,322.978 57.728 C 322.017 57.924,321.912 57.986,321.864 58.389 L 321.811 58.833 333.072 58.833 C 339.266 58.833,344.339 58.777,344.346 58.708 C 344.353 58.640,344.385 58.448,344.416 58.282 C 344.484 57.927,343.923 57.665,343.221 57.724 C 342.082 57.818,338.833 55.807,338.833 55.007 C 338.833 54.927,338.777 54.836,338.708 54.806 C 338.538 54.730,337.743 53.067,337.490 52.257 C 337.377 51.893,337.108 51.245,336.892 50.816 C 336.676 50.386,336.500 49.950,336.500 49.845 C 336.500 49.741,336.326 49.302,336.113 48.869 C 335.901 48.437,335.625 47.746,335.500 47.333 C 335.376 46.921,335.188 46.471,335.082 46.333 C 334.976 46.196,334.758 45.708,334.598 45.250 C 334.437 44.792,334.262 44.304,334.210 44.167 C 334.157 44.029,334.126 43.860,334.140 43.792 C 334.155 43.723,334.107 43.667,334.035 43.667 C 333.962 43.667,333.761 43.235,333.588 42.708 C 333.415 42.181,333.190 41.637,333.088 41.500 C 332.986 41.362,332.803 40.950,332.682 40.583 C 332.561 40.217,332.252 39.429,331.997 38.833 C 331.741 38.237,331.438 37.431,331.323 37.042 C 331.208 36.652,331.051 36.333,330.974 36.333 C 330.896 36.333,330.833 36.223,330.833 36.089 C 330.833 35.859,330.700 35.513,329.997 33.917 C 329.836 33.550,329.611 32.950,329.497 32.583 C 329.383 32.217,329.188 31.729,329.062 31.500 C 328.793 31.010,327.940 28.944,327.507 27.735 C 327.340 27.269,327.123 26.744,327.024 26.569 C 326.740 26.061,325.500 22.966,325.500 22.763 C 325.500 22.661,325.340 22.280,325.144 21.914 C 324.948 21.549,324.648 20.846,324.478 20.351 C 324.308 19.857,324.103 19.370,324.023 19.268 C 323.942 19.166,323.782 18.783,323.667 18.417 C 323.551 18.050,323.373 17.645,323.270 17.516 C 323.167 17.387,323.092 17.237,323.102 17.183 C 323.113 17.128,323.059 16.933,322.981 16.750 C 322.904 16.567,322.280 15.029,321.595 13.333 C 320.909 11.637,320.120 9.698,319.841 9.024 C 319.562 8.350,319.333 7.699,319.333 7.578 C 319.333 7.457,319.234 7.258,319.113 7.137 C 318.992 7.016,318.884 6.859,318.874 6.788 C 318.841 6.570,318.170 4.779,317.922 4.250 C 317.794 3.975,317.580 3.450,317.447 3.083 C 317.213 2.437,316.617 2.105,316.285 2.437 M98.667 3.972 C 98.245 4.113,98.491 5.000,98.958 5.025 C 99.897 5.077,100.093 5.102,100.500 5.226 C 101.213 5.443,102.167 5.879,102.167 5.988 C 102.167 6.045,102.408 6.353,102.702 6.671 C 103.898 7.964,103.827 6.332,103.786 31.583 C 103.745 57.459,103.888 55.141,102.239 56.648 C 101.333 57.476,100.823 57.670,99.333 57.758 C 99.013 57.777,98.694 57.802,98.625 57.813 C 98.556 57.824,98.500 58.058,98.500 58.333 L 98.500 58.833 109.177 58.833 L 119.854 58.833 119.802 58.308 C 119.751 57.794,119.728 57.781,118.826 57.730 C 117.866 57.676,116.667 57.276,116.667 57.009 C 116.667 56.925,116.526 56.811,116.354 56.757 C 116.182 56.702,115.751 56.191,115.396 55.620 L 114.750 54.583 114.707 31.113 L 114.663 7.642 118.040 7.696 C 119.897 7.726,121.529 7.824,121.667 7.914 C 121.804 8.004,121.954 8.080,122.000 8.082 C 122.796 8.113,125.180 9.988,125.786 11.059 C 125.897 11.256,125.993 11.342,126.000 11.250 C 126.006 11.158,126.169 11.458,126.361 11.917 C 126.554 12.375,126.848 13.050,127.015 13.417 C 127.984 15.551,128.001 21.889,127.043 24.333 C 126.990 24.471,126.936 24.621,126.924 24.667 C 126.333 26.956,124.241 29.601,122.333 30.470 C 121.829 30.700,121.377 30.948,121.328 31.020 C 121.149 31.286,119.230 31.667,118.069 31.667 C 116.803 31.667,116.471 31.836,116.580 32.422 C 116.614 32.603,116.647 32.806,116.654 32.875 C 116.661 32.944,116.771 33.000,116.899 33.000 C 117.027 33.000,117.176 33.117,117.231 33.261 C 117.286 33.404,117.407 33.474,117.499 33.417 C 117.591 33.360,117.667 33.374,117.668 33.448 C 117.670 33.723,120.231 35.000,120.778 35.000 C 120.900 35.000,121.000 35.062,121.000 35.138 C 121.000 35.545,125.037 35.927,126.667 35.674 C 127.354 35.567,128.029 35.473,128.167 35.465 C 131.328 35.284,138.159 28.993,138.083 26.333 C 138.079 26.196,138.159 25.996,138.262 25.889 C 138.365 25.782,138.546 25.219,138.666 24.639 C 138.785 24.058,138.934 23.508,138.997 23.417 C 139.353 22.895,139.324 17.164,138.960 16.167 C 138.910 16.029,138.778 15.467,138.666 14.917 C 138.555 14.367,138.313 13.579,138.129 13.167 C 137.323 11.357,136.990 10.719,136.672 10.378 C 136.486 10.178,136.333 9.937,136.333 9.843 C 136.333 9.439,133.616 6.983,132.601 6.469 C 132.225 6.278,131.876 6.058,131.825 5.980 C 131.775 5.903,131.118 5.617,130.365 5.345 C 129.612 5.073,128.934 4.812,128.860 4.766 C 128.661 4.643,126.641 4.329,124.917 4.154 C 123.543 4.014,99.051 3.844,98.667 3.972 M189.304 4.018 C 188.813 4.322,189.247 5.083,189.917 5.093 C 191.996 5.122,193.465 6.186,194.276 8.250 C 194.528 8.893,194.590 52.814,194.340 54.131 C 194.173 55.011,193.232 56.658,192.893 56.664 C 192.788 56.665,192.658 56.783,192.604 56.924 C 192.452 57.318,191.370 57.698,190.254 57.748 C 189.255 57.793,189.250 57.795,189.233 58.313 L 189.217 58.833 199.942 58.833 C 208.417 58.833,210.664 58.790,210.655 58.625 C 210.619 57.982,210.379 57.772,209.636 57.733 C 208.054 57.648,207.214 57.203,206.150 55.885 C 205.305 54.838,205.333 55.717,205.333 30.781 L 205.333 7.620 208.542 7.711 C 212.255 7.816,214.567 8.517,215.379 9.784 C 215.450 9.894,215.769 10.261,216.087 10.599 C 216.406 10.937,216.667 11.310,216.667 11.428 C 216.667 11.546,216.764 11.742,216.884 11.863 C 217.273 12.258,217.968 14.416,217.857 14.887 C 217.840 14.963,217.902 14.977,217.996 14.919 C 218.090 14.861,218.169 14.912,218.172 15.032 C 218.175 15.152,218.247 16.188,218.332 17.333 C 218.498 19.549,218.346 21.761,217.926 23.250 C 217.796 23.708,217.563 24.533,217.407 25.083 C 217.252 25.633,216.984 26.262,216.812 26.481 C 216.640 26.699,216.500 26.950,216.500 27.038 C 216.500 27.125,216.144 27.621,215.708 28.139 C 214.702 29.337,214.547 29.500,214.420 29.500 C 214.362 29.500,214.038 29.690,213.699 29.922 C 213.160 30.291,212.507 30.538,210.981 30.951 C 210.762 31.011,209.852 31.088,208.958 31.124 L 207.333 31.189 207.333 31.761 C 207.333 32.165,207.409 32.333,207.590 32.333 C 209.249 32.333,211.407 35.171,212.407 38.667 C 212.525 39.079,212.780 39.754,212.972 40.167 C 213.601 41.512,215.203 45.234,215.438 45.897 C 215.905 47.213,217.715 50.863,218.273 51.614 C 218.489 51.906,218.667 52.187,218.667 52.239 C 218.667 52.537,221.752 55.616,222.366 55.931 C 222.669 56.086,222.956 56.273,223.004 56.347 C 223.168 56.599,225.416 57.622,226.292 57.842 C 226.773 57.964,227.167 58.134,227.167 58.220 C 227.167 58.306,227.425 58.335,227.740 58.284 C 228.056 58.233,228.337 58.255,228.365 58.332 C 228.526 58.774,232.254 58.851,250.917 58.793 C 269.969 58.734,271.584 58.688,272.750 58.168 C 272.933 58.086,273.346 57.971,273.667 57.913 C 275.008 57.667,276.386 57.144,278.639 56.024 C 281.048 54.826,281.649 54.451,282.616 53.542 C 282.836 53.335,283.073 53.167,283.143 53.167 C 283.482 53.167,286.833 49.548,286.833 49.182 C 286.833 49.082,286.898 49.000,286.977 49.000 C 287.335 49.000,289.833 44.493,289.833 43.846 C 289.833 43.666,289.905 43.476,289.992 43.422 C 290.079 43.368,290.314 42.782,290.515 42.120 C 290.715 41.458,290.917 40.804,290.964 40.667 C 291.012 40.529,291.076 40.342,291.107 40.250 C 292.327 36.651,292.387 29.016,291.241 23.250 C 291.186 22.975,291.135 22.656,291.126 22.542 C 291.118 22.427,291.058 22.333,290.994 22.333 C 290.930 22.333,290.839 22.052,290.793 21.708 C 290.701 21.024,289.390 17.568,289.070 17.167 C 288.960 17.029,288.710 16.560,288.514 16.125 C 288.319 15.690,288.085 15.333,287.996 15.333 C 287.906 15.333,287.833 15.234,287.833 15.112 C 287.833 14.800,286.173 12.630,284.911 11.295 C 283.668 9.978,280.956 7.941,279.685 7.368 C 279.354 7.219,278.971 7.014,278.833 6.913 C 278.423 6.613,275.807 5.530,275.000 5.327 C 274.587 5.223,273.800 5.000,273.250 4.831 C 272.700 4.663,271.350 4.440,270.250 4.336 C 269.150 4.232,268.025 4.118,267.750 4.081 C 267.475 4.044,261.212 4.011,253.833 4.007 C 246.454 4.004,240.332 4.001,240.228 4.000 C 239.953 4.000,239.848 4.567,240.068 4.867 C 240.179 5.020,240.494 5.120,240.839 5.113 C 242.138 5.087,244.500 6.334,244.500 7.046 C 244.500 7.130,244.669 7.435,244.875 7.724 L 245.250 8.250 245.250 31.333 L 245.250 54.417 244.776 55.273 C 243.310 57.917,240.469 58.485,237.270 56.774 C 236.328 56.270,233.333 53.368,233.333 52.959 C 233.333 52.865,233.165 52.617,232.958 52.409 C 232.281 51.723,231.768 50.973,231.351 50.058 C 231.261 49.861,231.115 49.654,231.026 49.600 C 230.938 49.545,230.614 49.071,230.308 48.546 C 230.001 48.021,229.600 47.350,229.417 47.055 C 229.233 46.759,228.739 45.932,228.317 45.217 C 227.896 44.502,227.395 43.654,227.205 43.333 C 227.015 43.012,226.422 42.010,225.888 41.105 C 223.781 37.535,221.637 35.133,219.694 34.164 L 218.869 33.752 220.136 33.539 C 220.832 33.421,221.443 33.266,221.493 33.195 C 221.543 33.123,221.846 32.961,222.167 32.835 C 223.476 32.321,224.954 31.150,226.167 29.667 C 226.396 29.386,226.721 29.003,226.889 28.814 C 227.058 28.626,227.365 28.104,227.573 27.656 C 227.781 27.207,227.985 26.874,228.027 26.916 C 228.069 26.958,228.277 26.450,228.488 25.788 C 228.699 25.125,228.930 24.508,229.000 24.417 C 229.158 24.211,229.345 23.368,229.666 21.417 C 229.988 19.463,229.663 14.226,229.181 13.585 C 229.111 13.492,228.882 12.946,228.672 12.371 C 228.462 11.797,228.220 11.283,228.135 11.230 C 228.049 11.177,227.909 10.973,227.823 10.775 C 227.531 10.104,227.334 9.845,226.073 8.482 C 225.396 7.751,223.706 6.500,223.394 6.500 C 223.304 6.500,223.061 6.343,222.854 6.150 C 222.648 5.958,222.390 5.787,222.281 5.771 C 222.172 5.754,222.008 5.696,221.917 5.642 C 221.825 5.588,221.450 5.449,221.083 5.333 C 220.717 5.218,220.323 5.049,220.208 4.958 C 220.094 4.867,220.000 4.848,220.000 4.917 C 220.000 4.985,219.900 4.958,219.779 4.857 C 219.577 4.689,217.451 4.335,215.167 4.087 C 213.938 3.954,189.513 3.889,189.304 4.018 M345.033 4.100 C 344.854 4.231,344.837 4.316,344.975 4.401 C 345.080 4.466,345.167 4.646,345.167 4.802 C 345.167 5.013,345.343 5.097,345.875 5.139 C 347.113 5.237,347.236 5.267,347.941 5.631 C 348.631 5.989,348.953 6.327,349.801 7.583 L 350.250 8.250 350.250 31.333 L 350.250 54.417 349.773 55.250 C 348.801 56.949,347.734 57.671,346.153 57.702 C 345.198 57.721,345.007 57.848,345.003 58.467 L 345.000 58.851 360.208 58.786 C 372.955 58.731,375.599 58.680,376.540 58.470 C 377.158 58.332,377.702 58.258,377.749 58.304 C 377.795 58.351,377.833 58.310,377.833 58.213 C 377.833 58.117,378.162 57.989,378.564 57.928 C 378.966 57.868,379.674 57.680,380.138 57.511 C 380.601 57.341,381.022 57.245,381.074 57.296 C 381.125 57.347,381.167 57.301,381.167 57.194 C 381.167 57.088,381.269 57.000,381.394 57.000 C 381.726 57.000,383.379 56.298,383.637 56.047 C 383.758 55.930,383.948 55.833,384.059 55.833 C 384.251 55.833,385.857 54.876,386.285 54.507 C 386.395 54.412,386.530 54.333,386.583 54.333 C 386.707 54.333,386.807 54.254,388.424 52.863 C 390.409 51.154,392.037 49.271,393.058 47.500 C 393.803 46.209,394.833 44.109,394.833 43.883 C 394.833 43.764,394.908 43.667,395.000 43.667 C 395.092 43.667,395.149 43.610,395.127 43.542 C 395.105 43.473,395.172 43.192,395.276 42.917 C 395.820 41.474,396.223 39.877,396.513 38.003 C 396.691 36.856,396.898 35.562,396.972 35.128 C 397.124 34.244,397.112 28.690,396.957 27.917 C 396.902 27.642,396.812 26.929,396.757 26.333 C 396.647 25.128,396.209 22.765,396.000 22.250 C 395.926 22.067,395.696 21.354,395.489 20.667 C 395.283 19.979,395.063 19.342,395.001 19.250 C 394.939 19.158,394.717 18.652,394.508 18.125 C 394.299 17.598,394.062 17.167,393.981 17.167 C 393.900 17.167,393.833 17.055,393.833 16.919 C 393.833 16.643,392.865 14.985,392.592 14.794 C 392.495 14.727,392.478 14.671,392.553 14.669 C 392.681 14.667,392.137 13.938,390.871 12.417 C 390.566 12.050,390.256 11.675,390.182 11.583 C 389.823 11.137,388.294 9.808,387.250 9.036 C 386.608 8.561,385.997 8.100,385.891 8.011 C 385.725 7.873,383.282 6.629,381.750 5.904 C 381.353 5.716,379.306 5.125,378.417 4.942 C 378.325 4.923,378.165 4.854,378.061 4.789 C 377.826 4.642,376.144 4.401,373.750 4.171 C 371.148 3.922,345.364 3.857,345.033 4.100 M268.991 8.299 C 269.856 8.596,270.681 8.936,270.824 9.052 C 270.967 9.169,271.308 9.371,271.583 9.501 C 272.609 9.987,275.500 12.680,275.500 13.149 C 275.500 13.256,275.611 13.386,275.746 13.438 C 275.882 13.490,276.204 13.919,276.463 14.391 C 276.722 14.864,277.018 15.400,277.121 15.583 C 277.490 16.241,278.293 18.096,278.492 18.750 C 278.603 19.117,278.799 19.651,278.928 19.936 C 279.150 20.430,279.862 23.709,279.901 24.417 C 279.911 24.600,279.981 24.847,280.058 24.966 C 280.518 25.685,280.460 37.307,279.991 38.183 C 279.912 38.331,279.815 38.782,279.776 39.184 C 279.738 39.587,279.664 40.029,279.613 40.167 C 279.562 40.304,279.436 40.867,279.334 41.417 C 279.233 41.967,279.082 42.567,279.000 42.750 C 278.918 42.933,278.652 43.702,278.408 44.458 C 278.164 45.215,277.912 45.833,277.849 45.833 C 277.786 45.833,277.636 46.115,277.517 46.458 C 277.397 46.802,277.120 47.363,276.900 47.705 C 276.680 48.047,276.500 48.384,276.500 48.455 C 276.499 48.525,276.275 48.846,276.000 49.167 C 275.725 49.487,275.501 49.805,275.500 49.873 C 275.500 50.054,273.063 52.500,272.883 52.500 C 272.799 52.500,272.567 52.651,272.369 52.836 C 271.796 53.369,269.592 54.446,268.630 54.662 C 268.146 54.770,267.637 54.904,267.500 54.960 C 266.940 55.184,266.372 55.214,261.376 55.281 L 256.169 55.351 256.126 31.467 L 256.083 7.583 261.750 7.670 L 267.417 7.757 268.991 8.299 M371.750 7.745 C 372.300 7.811,372.825 7.923,372.917 7.993 C 373.008 8.064,373.196 8.123,373.333 8.125 C 373.680 8.131,375.738 8.890,375.804 9.036 C 375.833 9.102,376.189 9.321,376.595 9.524 C 377.001 9.727,377.333 9.952,377.333 10.025 C 377.333 10.098,377.554 10.272,377.823 10.411 C 378.092 10.550,378.598 10.974,378.948 11.353 C 379.297 11.732,379.776 12.239,380.012 12.479 C 380.466 12.942,382.333 15.741,382.333 15.958 C 382.333 16.028,382.513 16.424,382.733 16.837 C 383.559 18.388,384.874 23.087,384.878 24.500 C 384.878 24.637,384.940 24.828,385.014 24.923 C 385.586 25.656,385.530 35.562,384.937 38.417 C 384.804 39.058,384.570 40.221,384.416 41.000 C 384.263 41.779,384.038 42.642,383.918 42.917 C 383.797 43.192,383.648 43.642,383.587 43.917 C 383.467 44.457,382.199 47.363,382.024 47.500 C 381.965 47.546,381.771 47.870,381.592 48.221 C 381.413 48.572,381.151 48.998,381.009 49.170 C 380.866 49.341,380.392 49.916,379.955 50.449 C 379.518 50.981,378.918 51.623,378.622 51.876 C 377.349 52.962,376.621 53.500,376.424 53.500 C 376.308 53.500,375.950 53.679,375.627 53.898 C 375.120 54.242,373.154 54.871,372.542 54.884 C 372.427 54.887,372.333 54.939,372.333 55.001 C 372.333 55.195,371.216 55.239,366.083 55.245 L 361.083 55.250 361.083 31.500 L 361.083 7.750 365.667 7.667 C 368.188 7.621,370.363 7.593,370.500 7.604 C 370.637 7.615,371.200 7.679,371.750 7.745 M158.494 23.000 C 158.708 23.688,158.938 24.325,159.005 24.417 C 159.072 24.508,159.316 25.183,159.547 25.917 C 160.045 27.496,160.767 29.480,160.976 29.839 C 161.058 29.979,161.181 30.352,161.250 30.667 C 161.319 30.981,161.440 31.354,161.518 31.495 C 161.596 31.635,162.156 33.175,162.764 34.917 C 163.371 36.658,164.006 38.475,164.174 38.955 L 164.480 39.826 157.847 39.871 L 151.215 39.917 151.629 38.750 C 151.856 38.108,152.246 37.005,152.495 36.299 C 152.744 35.593,153.043 34.899,153.161 34.757 C 153.278 34.616,153.332 34.500,153.279 34.500 C 153.163 34.500,153.774 32.692,153.977 32.435 C 154.057 32.333,154.291 31.688,154.497 31.000 C 154.702 30.313,154.963 29.600,155.076 29.417 C 155.188 29.233,155.417 28.633,155.584 28.083 C 155.751 27.533,155.949 27.003,156.024 26.904 C 156.099 26.805,156.319 26.205,156.514 25.570 C 156.709 24.936,156.926 24.342,156.996 24.250 C 157.066 24.158,157.302 23.506,157.520 22.801 C 157.975 21.331,157.973 21.330,158.494 23.000 M315.667 26.333 C 316.231 27.938,316.790 29.475,316.911 29.750 C 317.229 30.473,317.458 31.146,317.676 32.000 C 317.782 32.412,317.917 32.787,317.977 32.833 C 318.037 32.879,318.250 33.404,318.449 34.000 C 319.100 35.944,319.922 38.246,320.028 38.417 C 320.085 38.508,320.208 38.863,320.301 39.205 L 320.471 39.826 313.842 39.871 L 307.213 39.917 307.523 39.000 C 307.694 38.496,307.900 37.933,307.980 37.750 C 308.175 37.307,308.517 36.401,309.176 34.583 C 309.475 33.758,309.811 32.858,309.923 32.583 C 310.035 32.308,310.245 31.746,310.389 31.333 C 310.534 30.921,310.742 30.358,310.852 30.083 C 310.962 29.808,311.071 29.508,311.094 29.417 C 311.217 28.940,311.928 27.072,312.015 27.000 C 312.070 26.954,312.284 26.354,312.490 25.667 C 312.697 24.979,312.921 24.342,312.988 24.250 C 313.055 24.158,313.278 23.596,313.483 23.000 C 313.688 22.404,313.897 21.804,313.947 21.667 C 313.999 21.524,314.168 21.846,314.340 22.417 C 314.507 22.967,315.104 24.729,315.667 26.333 M48.896 21.792 L 97.876 21.834 97.772 22.481 C 97.697 22.950,97.737 23.185,97.918 23.334 C 98.133 23.513,98.167 23.427,98.167 22.705 C 98.167 22.096,98.095 21.841,97.903 21.768 C 97.758 21.712,75.652 21.685,48.778 21.708 L -0.083 21.749 48.896 21.792 M24.555 39.625 C 38.106 39.649,60.231 39.649,73.722 39.625 C 87.212 39.601,76.125 39.582,49.083 39.582 C 22.042 39.582,11.004 39.601,24.555 39.625 M159.612 62.165 C 159.173 62.444,158.750 62.866,158.653 63.124 C 158.558 63.376,158.297 63.972,158.074 64.448 C 157.850 64.924,157.667 65.349,157.667 65.393 C 157.667 65.436,157.504 65.835,157.305 66.278 C 157.107 66.721,156.931 67.121,156.915 67.167 C 156.879 67.271,156.377 68.417,156.075 69.083 C 155.950 69.358,155.689 69.996,155.494 70.500 C 155.299 71.004,155.083 71.491,155.015 71.583 C 154.947 71.675,154.756 72.125,154.592 72.583 C 154.265 73.496,153.376 75.590,152.739 76.948 C 152.516 77.423,152.333 77.859,152.333 77.915 C 152.333 77.972,152.193 78.333,152.021 78.717 C 151.850 79.102,151.437 80.026,151.105 80.771 C 150.772 81.516,150.500 82.170,150.500 82.226 C 150.500 82.281,150.247 82.871,149.937 83.538 C 149.627 84.205,149.317 84.938,149.247 85.167 C 148.988 86.011,147.636 86.667,146.151 86.667 C 145.709 86.667,145.665 86.716,145.700 87.169 L 145.738 87.672 149.911 87.628 L 154.083 87.583 154.136 87.125 C 154.184 86.712,154.138 86.667,153.668 86.667 C 152.935 86.667,151.626 86.316,151.357 86.047 C 151.139 85.830,151.659 83.927,152.007 83.667 C 152.068 83.621,152.214 83.283,152.330 82.917 C 152.447 82.550,152.712 81.875,152.918 81.417 C 153.125 80.958,153.376 80.376,153.477 80.123 L 153.661 79.663 159.699 79.706 L 165.736 79.750 166.300 81.083 C 166.610 81.817,167.049 82.867,167.277 83.417 C 167.504 83.967,167.843 84.737,168.028 85.128 C 168.530 86.186,167.866 86.667,165.904 86.667 C 165.381 86.667,165.333 86.708,165.333 87.167 L 165.333 87.667 169.823 87.667 C 172.664 87.667,174.352 87.605,174.418 87.499 C 174.649 87.124,174.316 86.667,173.813 86.667 C 172.191 86.667,171.004 85.893,170.542 84.537 C 170.395 84.105,170.146 83.527,169.989 83.251 C 169.832 82.976,169.610 82.450,169.497 82.083 C 169.383 81.717,169.231 81.341,169.159 81.250 C 169.087 81.158,168.883 80.708,168.707 80.250 C 168.530 79.791,168.325 79.267,168.250 79.083 C 168.175 78.900,168.126 78.694,168.140 78.625 C 168.155 78.556,168.098 78.500,168.013 78.500 C 167.929 78.500,167.730 78.108,167.571 77.628 C 167.411 77.149,167.105 76.407,166.891 75.979 C 166.676 75.551,166.500 75.150,166.500 75.086 C 166.500 75.023,166.275 74.484,166.000 73.890 C 165.725 73.296,165.500 72.708,165.500 72.584 C 165.500 72.459,165.402 72.258,165.282 72.137 C 165.162 72.016,164.885 71.392,164.666 70.750 C 164.447 70.108,164.178 69.471,164.068 69.333 C 163.958 69.196,163.745 68.717,163.595 68.270 C 163.445 67.823,163.137 67.054,162.911 66.562 C 162.685 66.069,162.320 65.273,162.099 64.792 C 161.879 64.310,161.570 63.523,161.413 63.042 C 161.257 62.560,161.062 62.167,160.981 62.167 C 160.900 62.167,160.833 62.054,160.833 61.917 C 160.833 61.541,160.484 61.612,159.612 62.165 M98.333 65.266 L 98.333 68.522 98.791 68.469 C 99.200 68.422,99.263 68.328,99.386 67.583 C 99.714 65.587,99.870 65.009,100.175 64.657 C 100.354 64.451,100.500 64.216,100.500 64.134 C 100.500 63.625,101.849 63.417,104.836 63.466 L 107.833 63.515 107.833 74.655 C 107.833 87.740,108.049 86.482,105.785 86.623 L 104.333 86.714 104.333 87.190 L 104.333 87.667 109.261 87.667 L 114.189 87.667 114.136 87.208 C 114.085 86.761,114.051 86.747,112.750 86.644 C 111.360 86.533,110.834 86.397,110.628 86.095 C 110.560 85.997,110.504 80.873,110.503 74.708 L 110.500 63.500 113.675 63.500 C 117.203 63.500,117.551 63.581,118.133 64.538 C 118.417 65.003,119.044 67.443,118.971 67.798 C 118.907 68.113,119.243 68.500,119.580 68.500 C 120.085 68.500,120.186 67.824,120.158 64.656 L 120.136 62.202 119.619 62.099 C 119.334 62.042,114.429 61.999,108.718 62.003 L 98.333 62.010 98.333 65.266 M122.498 62.253 C 122.061 62.779,122.425 63.000,123.731 63.000 C 124.414 63.000,124.997 63.056,125.028 63.125 C 125.058 63.194,125.308 63.365,125.583 63.506 L 126.083 63.763 126.126 74.768 L 126.169 85.773 125.769 86.149 C 125.441 86.457,125.100 86.546,123.893 86.638 C 122.459 86.747,122.417 86.762,122.417 87.167 L 122.417 87.583 132.995 87.583 L 143.573 87.583 143.625 86.833 C 143.654 86.421,143.758 85.408,143.855 84.583 C 144.190 81.754,144.156 81.258,143.625 81.197 C 143.268 81.156,143.167 81.214,143.167 81.459 C 143.167 81.632,143.052 82.144,142.911 82.595 C 141.709 86.452,141.977 86.333,134.445 86.333 L 128.667 86.333 128.667 80.583 L 128.667 74.833 133.138 74.833 C 138.550 74.833,138.462 74.786,138.704 77.833 C 138.745 78.359,138.804 78.422,139.294 78.469 L 139.839 78.522 139.794 74.136 L 139.750 69.750 139.256 69.750 C 138.769 69.750,138.760 69.766,138.584 71.000 C 138.242 73.393,138.384 73.333,133.011 73.333 L 128.667 73.333 128.667 68.417 L 128.667 63.500 134.422 63.500 C 141.747 63.500,141.840 63.540,142.409 66.914 C 142.600 68.051,142.619 68.083,143.094 68.083 L 143.583 68.083 143.629 65.147 L 143.674 62.210 143.138 62.103 C 141.909 61.857,122.710 61.997,122.498 62.253 M175.542 62.110 C 175.427 62.157,175.333 62.376,175.333 62.597 C 175.333 62.988,175.371 63.000,176.625 63.001 C 178.037 63.002,178.840 63.342,179.000 64.006 C 179.046 64.196,179.064 69.222,179.039 75.174 L 178.995 85.995 178.563 86.279 C 178.275 86.467,177.664 86.586,176.732 86.635 L 175.333 86.708 175.333 87.190 L 175.333 87.672 179.958 87.628 L 184.583 87.583 184.583 87.167 C 184.583 86.762,184.539 86.746,183.088 86.626 C 181.852 86.523,181.526 86.435,181.211 86.120 L 180.831 85.740 180.874 75.328 L 180.917 64.917 181.397 65.958 C 181.661 66.531,181.942 67.000,182.022 67.000 C 182.101 67.000,182.167 67.086,182.167 67.190 C 182.167 67.410,182.863 68.876,183.026 69.000 C 183.087 69.047,183.268 69.422,183.428 69.834 C 183.588 70.246,183.801 70.688,183.901 70.816 C 184.001 70.944,184.271 71.420,184.500 71.874 C 186.947 76.720,187.938 78.618,188.119 78.804 C 188.237 78.925,188.333 79.138,188.333 79.278 C 188.333 79.418,188.472 79.731,188.641 79.974 C 188.810 80.218,189.374 81.279,189.894 82.333 C 191.127 84.834,191.127 84.833,192.041 84.833 C 192.605 84.833,192.823 84.760,192.906 84.542 C 192.968 84.381,193.295 83.741,193.634 83.118 C 193.973 82.496,194.657 81.184,195.153 80.202 C 195.650 79.220,196.107 78.379,196.169 78.333 C 196.230 78.287,196.415 77.894,196.580 77.458 C 196.744 77.023,196.931 76.667,196.994 76.667 C 197.058 76.667,197.288 76.273,197.505 75.792 C 197.722 75.310,197.985 74.804,198.089 74.667 C 198.193 74.529,198.449 74.004,198.660 73.500 C 198.870 72.996,199.090 72.546,199.149 72.500 C 199.208 72.454,199.655 71.630,200.142 70.668 C 200.628 69.706,201.089 68.843,201.165 68.751 C 201.241 68.659,201.436 68.246,201.599 67.833 C 201.761 67.421,201.953 67.043,202.024 66.994 C 202.096 66.944,202.379 66.419,202.653 65.827 L 203.151 64.750 203.154 75.250 C 203.156 87.641,203.402 86.634,200.375 86.659 C 199.516 86.667,199.500 86.676,199.500 87.167 L 199.500 87.667 204.417 87.667 L 209.333 87.667 209.333 87.167 L 209.333 86.667 208.324 86.667 C 206.874 86.667,205.850 86.377,205.744 85.938 C 205.507 84.960,205.751 63.619,206.000 63.502 C 206.137 63.438,206.418 63.298,206.623 63.193 C 206.828 63.087,207.521 63.000,208.164 63.000 C 209.356 63.000,209.919 62.427,209.053 62.095 C 208.731 61.971,203.172 61.986,202.691 62.112 C 202.403 62.187,201.637 63.601,198.731 69.417 C 198.502 69.875,198.172 70.512,197.998 70.833 C 197.824 71.154,196.846 73.067,195.825 75.083 C 194.804 77.100,193.834 79.012,193.671 79.333 C 193.507 79.654,193.288 80.104,193.184 80.333 C 193.080 80.563,192.822 81.071,192.610 81.463 L 192.225 82.177 191.946 81.588 C 191.792 81.265,191.535 80.719,191.375 80.375 C 191.215 80.031,191.026 79.675,190.955 79.583 C 190.885 79.492,189.566 76.904,188.025 73.833 C 186.484 70.762,185.060 67.987,184.862 67.667 C 184.664 67.346,184.501 66.999,184.501 66.895 C 184.500 66.792,184.240 66.275,183.922 65.746 C 183.603 65.218,183.380 64.727,183.424 64.654 C 183.469 64.582,183.420 64.470,183.315 64.406 C 183.211 64.341,182.913 63.821,182.655 63.250 C 182.251 62.361,182.108 62.197,181.654 62.106 C 181.037 61.982,175.849 61.986,175.542 62.110 M160.421 67.097 C 160.588 67.548,160.787 68.000,160.863 68.101 C 160.939 68.203,161.148 68.710,161.326 69.228 C 161.504 69.746,161.758 70.376,161.889 70.627 C 162.128 71.081,163.768 74.968,164.561 76.958 L 164.977 78.000 159.738 78.000 C 153.958 78.000,154.244 78.064,154.843 76.910 C 155.031 76.547,155.341 75.800,155.531 75.250 C 155.721 74.700,155.969 74.137,156.083 74.000 C 156.197 73.862,156.422 73.337,156.583 72.833 C 156.744 72.329,156.964 71.804,157.071 71.667 C 157.178 71.529,157.403 71.004,157.572 70.500 C 157.741 69.996,158.006 69.358,158.162 69.083 C 158.317 68.808,158.545 68.246,158.668 67.833 C 158.792 67.421,158.992 66.965,159.113 66.820 C 159.234 66.675,159.333 66.512,159.333 66.456 C 159.333 66.400,159.412 66.149,159.508 65.896 L 159.682 65.438 159.900 65.857 C 160.019 66.088,160.254 66.645,160.421 67.097 "
              stroke="none" fill="#ececec" fill-rule="evenodd" class="pardad_team_text"></path>
        <path id="path1"
              d="M0.000 49.250 L 0.000 58.833 49.083 58.833 L 98.167 58.833 98.167 49.250 L 98.167 39.667 49.083 39.667 L 0.000 39.667 0.000 49.250 "
              stroke="none" fill="#d30424" fill-rule="evenodd"></path>
        <path id="path2"
              d="M0.000 12.750 L 0.000 21.667 48.820 21.667 C 75.671 21.667,97.758 21.712,97.903 21.768 C 98.141 21.859,98.167 21.006,98.167 12.851 L 98.167 3.833 49.083 3.833 L 0.000 3.833 0.000 12.750 "
              stroke="none" fill="#049c34" fill-rule="evenodd"></path>
        <path id="path3"
              d="M104.958 3.958 C 108.190 3.984,113.477 3.984,116.708 3.958 C 119.940 3.933,117.296 3.912,110.833 3.912 C 104.371 3.912,101.727 3.933,104.958 3.958 M195.804 3.958 C 199.134 3.984,204.534 3.984,207.804 3.958 C 211.074 3.933,208.350 3.912,201.750 3.912 C 195.150 3.912,192.474 3.933,195.804 3.958 M214.167 3.898 C 214.167 3.933,214.388 3.995,214.658 4.034 C 214.928 4.074,215.111 4.045,215.065 3.970 C 214.982 3.836,214.167 3.771,214.167 3.898 M246.887 3.958 C 250.446 3.983,256.221 3.983,259.721 3.958 C 263.220 3.933,260.308 3.913,253.250 3.913 C 246.192 3.913,243.328 3.933,246.887 3.958 M344.987 3.875 C 344.885 4.209,344.891 4.516,345.000 4.583 C 345.076 4.630,345.117 4.537,345.092 4.376 C 345.068 4.215,345.130 4.028,345.232 3.961 C 345.361 3.875,345.354 3.838,345.208 3.836 C 345.094 3.834,344.994 3.852,344.987 3.875 M351.958 3.958 C 355.465 3.983,361.202 3.983,364.708 3.958 C 368.215 3.933,365.346 3.913,358.333 3.913 C 351.321 3.913,348.452 3.933,351.958 3.958 M371.833 3.898 C 371.833 3.933,372.054 3.995,372.325 4.034 C 372.595 4.074,372.778 4.045,372.731 3.970 C 372.649 3.836,371.833 3.771,371.833 3.898 M361.081 31.500 C 361.081 44.563,361.101 49.906,361.125 43.375 C 361.149 36.844,361.149 26.156,361.125 19.625 C 361.101 13.094,361.081 18.438,361.081 31.500 M127.714 19.250 C 127.716 19.708,127.748 19.876,127.786 19.623 C 127.825 19.369,127.824 18.994,127.784 18.789 C 127.744 18.584,127.713 18.792,127.714 19.250 M0.000 30.667 L 0.000 39.500 49.083 39.500 L 98.167 39.500 98.167 31.520 C 98.167 24.647,98.132 23.512,97.918 23.334 C 97.737 23.185,97.697 22.950,97.772 22.481 L 97.876 21.833 48.938 21.833 L 0.000 21.833 0.000 30.667 M396.920 28.018 C 397.016 28.516,397.167 28.630,397.167 28.204 C 397.167 28.011,397.096 27.809,397.009 27.755 C 396.921 27.701,396.882 27.818,396.920 28.018 M291.996 28.633 L 292.076 29.417 292.133 28.770 C 292.164 28.414,292.128 28.061,292.052 27.986 C 291.977 27.910,291.952 28.202,291.996 28.633 M207.205 31.667 C 207.205 31.988,207.240 32.119,207.282 31.958 C 207.323 31.798,207.323 31.535,207.282 31.375 C 207.240 31.215,207.205 31.346,207.205 31.667 M302.019 54.948 C 302.009 55.424,302.058 55.849,302.128 55.893 C 302.199 55.936,302.232 55.660,302.203 55.278 C 302.116 54.156,302.040 54.020,302.019 54.948 M119.820 58.292 C 119.900 58.867,119.911 58.879,119.966 58.438 C 119.999 58.175,119.960 57.894,119.880 57.813 C 119.796 57.729,119.771 57.934,119.820 58.292 M134.542 57.782 C 134.702 57.823,134.965 57.823,135.125 57.782 C 135.285 57.740,135.154 57.705,134.833 57.705 C 134.512 57.705,134.381 57.740,134.542 57.782 M290.542 57.782 C 290.702 57.823,290.965 57.823,291.125 57.782 C 291.285 57.740,291.154 57.705,290.833 57.705 C 290.512 57.705,290.381 57.740,290.542 57.782 M321.938 57.799 C 321.893 57.871,322.114 57.900,322.428 57.864 C 322.743 57.827,323.000 57.768,323.000 57.732 C 323.000 57.606,322.019 57.668,321.938 57.799 M344.944 57.778 C 344.883 57.839,344.841 58.120,344.850 58.403 L 344.867 58.917 345.004 58.334 C 345.147 57.728,345.132 57.590,344.944 57.778 M178.750 74.833 C 178.750 81.058,178.805 86.095,178.873 86.027 C 179.038 85.862,179.044 63.811,178.880 63.646 C 178.808 63.575,178.750 68.609,178.750 74.833 M142.609 68.208 C 142.652 68.277,142.865 68.333,143.083 68.333 C 143.302 68.333,143.515 68.277,143.558 68.208 C 143.600 68.140,143.387 68.083,143.083 68.083 C 142.780 68.083,142.567 68.140,142.609 68.208 M154.147 87.130 C 154.092 87.461,154.116 87.617,154.209 87.524 C 154.293 87.440,154.334 87.194,154.300 86.978 C 154.247 86.644,154.224 86.667,154.147 87.130 "
              stroke="none" fill="#fcfcfc" fill-rule="evenodd"></path>
    </g>
    <path id="path3" d="" stroke="none" fill="#cce4cc" fill-rule="evenodd" data-id="text"></path>
    <path id="path4" d="" stroke="none" fill="#cce4cc" fill-rule="evenodd" data-id="shape"></path>
</svg>